<svg width="90" height="90" viewBox="0 0 90 90" fill="none" xmlns="http://www.w3.org/2000/svg">
<circle cx="45" cy="45" r="45" fill="#1B0A36"/>
<path d="M61 72.1125H52.392V69.6325H55.752V65.8885H52.392V63.3925H61V65.8885H57.784V69.6325H61V72.1125ZM61 55.5791H58.136L58.536 55.2271V57.6111C58.536 58.8485 58.28 59.8191 57.768 60.5231C57.256 61.2271 56.52 61.5791 55.56 61.5791C54.536 61.5791 53.752 61.2111 53.208 60.4751C52.664 59.7285 52.392 58.7258 52.392 57.4671V53.3551H61V55.5791ZM61 61.7071L57.72 59.4191V56.8751L61 59.0511V61.7071ZM57.368 55.5791H53.784L54.424 55.2271V57.4191C54.424 57.9311 54.52 58.3311 54.712 58.6191C54.904 58.8965 55.2133 59.0351 55.64 59.0351C56.4613 59.0351 56.872 58.5071 56.872 57.4511V55.2271L57.368 55.5791ZM58.952 45.0842L59.528 45.6282H52.392V43.1322H59.528L58.952 43.7083V39.7402L59.528 40.3002H52.392V37.8202H61V50.9562H52.392V48.4762H59.528L58.952 49.0362V45.0842ZM61 29.329L56.92 32.209L55.72 30.177L61 26.385V29.329ZM61 35.425H52.392V32.929H61V35.425ZM57.736 33.665H55.736V30.657H57.736V33.665ZM56.984 29.937L56.728 32.273L52.392 29.249V26.593L56.984 29.937ZM61 25.1594H52.392V22.6794H57.512L52.392 18.4874V16.1994H61V18.6794H55.88L61 22.8554V25.1594Z" fill="#35FCD2"/>
<path d="M25.1705 44.14C24.0771 44.14 23.1038 43.9067 22.2505 43.44C21.3971 42.96 20.7238 42.3067 20.2305 41.48C19.7371 40.6533 19.4905 39.7133 19.4905 38.66C19.4905 37.5933 19.7371 36.6533 20.2305 35.84C20.7238 35.0133 21.3971 34.3667 22.2505 33.9C23.1038 33.4333 24.0771 33.2 25.1705 33.2C26.2771 33.2 27.2571 33.4333 28.1105 33.9C28.9771 34.3667 29.6505 35.0067 30.1305 35.82C30.6238 36.6333 30.8705 37.58 30.8705 38.66C30.8705 39.7133 30.6238 40.6533 30.1305 41.48C29.6505 42.3067 28.9771 42.96 28.1105 43.44C27.2571 43.9067 26.2771 44.14 25.1705 44.14ZM25.1705 42C25.7838 42 26.3305 41.8667 26.8105 41.6C27.2905 41.3333 27.6638 40.9467 27.9305 40.44C28.2105 39.9333 28.3505 39.34 28.3505 38.66C28.3505 37.9667 28.2105 37.3733 27.9305 36.88C27.6638 36.3733 27.2905 35.9867 26.8105 35.72C26.3305 35.4533 25.7905 35.32 25.1905 35.32C24.5771 35.32 24.0305 35.4533 23.5505 35.72C23.0838 35.9867 22.7105 36.3733 22.4305 36.88C22.1505 37.3733 22.0105 37.9667 22.0105 38.66C22.0105 39.34 22.1505 39.9333 22.4305 40.44C22.7105 40.9467 23.0838 41.3333 23.5505 41.6C24.0305 41.8667 24.5705 42 25.1705 42ZM38.4402 44.2C37.5602 44.2 36.7735 44.0667 36.0802 43.8C35.3868 43.5333 34.7868 43.1267 34.2802 42.58C33.7868 42.02 33.4068 41.3133 33.1402 40.46C32.8735 39.6067 32.7402 38.5933 32.7402 37.42C32.7402 36.5667 32.8135 35.7867 32.9602 35.08C33.1068 34.3733 33.3268 33.74 33.6202 33.18C33.9135 32.6067 34.2802 32.1 34.7202 31.66C35.1735 31.22 35.7002 30.8533 36.3002 30.56C36.9002 30.2667 37.5802 30.04 38.3402 29.88L43.3002 28.82L43.6602 31.06L39.1602 31.98C38.9068 32.0333 38.6002 32.1133 38.2402 32.22C37.8935 32.3133 37.5335 32.46 37.1602 32.66C36.8002 32.8467 36.4602 33.12 36.1402 33.48C35.8335 33.8267 35.5802 34.28 35.3802 34.84C35.1935 35.3867 35.1002 36.0733 35.1002 36.9C35.1002 37.1533 35.1068 37.3467 35.1202 37.48C35.1468 37.6 35.1668 37.7333 35.1802 37.88C35.2068 38.0133 35.2202 38.2133 35.2202 38.48L34.2802 37.5C34.5468 36.82 34.9135 36.24 35.3802 35.76C35.8602 35.2667 36.4135 34.8933 37.0402 34.64C37.6802 34.3733 38.3735 34.24 39.1202 34.24C40.1202 34.24 41.0068 34.4467 41.7802 34.86C42.5535 35.2733 43.1602 35.8533 43.6002 36.6C44.0402 37.3467 44.2602 38.1933 44.2602 39.14C44.2602 40.1267 44.0202 41 43.5402 41.76C43.0602 42.52 42.3802 43.12 41.5002 43.56C40.6335 43.9867 39.6135 44.2 38.4402 44.2ZM38.6402 42.18C39.2402 42.18 39.7668 42.0533 40.2202 41.8C40.6868 41.5333 41.0468 41.1733 41.3002 40.72C41.5668 40.2667 41.7002 39.76 41.7002 39.2C41.7002 38.64 41.5668 38.1533 41.3002 37.74C41.0468 37.3133 40.6868 36.9733 40.2202 36.72C39.7668 36.4667 39.2268 36.34 38.6002 36.34C38.0002 36.34 37.4602 36.46 36.9802 36.7C36.5135 36.94 36.1468 37.2733 35.8802 37.7C35.6268 38.1133 35.5002 38.5933 35.5002 39.14C35.5002 39.7 35.6335 40.2133 35.9002 40.68C36.1668 41.1467 36.5335 41.5133 37.0002 41.78C37.4802 42.0467 38.0268 42.18 38.6402 42.18ZM17.8323 59V48.32H20.4523L24.7523 55.9H23.7123L28.2323 48.32H30.5723L30.5923 59H28.3323V51L28.7323 51.26L24.7323 57.88H23.6523L19.6323 51.08L20.1123 50.96V59H17.8323ZM38.9256 59.14C37.739 59.14 36.699 58.9067 35.8056 58.44C34.9256 57.96 34.239 57.3067 33.7456 56.48C33.2656 55.6533 33.0256 54.7133 33.0256 53.66C33.0256 52.5933 33.259 51.6533 33.7256 50.84C34.2056 50.0133 34.859 49.3667 35.6856 48.9C36.5256 48.4333 37.479 48.2 38.5456 48.2C39.5856 48.2 40.5123 48.4267 41.3256 48.88C42.139 49.3333 42.779 49.9733 43.2456 50.8C43.7123 51.6267 43.9456 52.6 43.9456 53.72C43.9456 53.8267 43.939 53.9467 43.9256 54.08C43.9256 54.2133 43.919 54.34 43.9056 54.46H35.0056V52.8H42.5856L41.6056 53.32C41.619 52.7067 41.4923 52.1667 41.2256 51.7C40.959 51.2333 40.5923 50.8667 40.1256 50.6C39.6723 50.3333 39.1456 50.2 38.5456 50.2C37.9323 50.2 37.3923 50.3333 36.9256 50.6C36.4723 50.8667 36.1123 51.24 35.8456 51.72C35.5923 52.1867 35.4656 52.74 35.4656 53.38V53.78C35.4656 54.42 35.6123 54.9867 35.9056 55.48C36.199 55.9733 36.6123 56.3533 37.1456 56.62C37.679 56.8867 38.2923 57.02 38.9856 57.02C39.5856 57.02 40.1256 56.9267 40.6056 56.74C41.0856 56.5533 41.5123 56.26 41.8856 55.86L43.2256 57.4C42.7456 57.96 42.139 58.3933 41.4056 58.7C40.6856 58.9933 39.859 59.14 38.9256 59.14Z" fill="white"/>
</svg>
