<svg  viewBox="0 0 189 189" fill="none" xmlns="http://www.w3.org/2000/svg">
<path d="M23.625 78.75C23.625 70.0515 30.6765 63 39.375 63H48.5625C54.9208 63 60.6555 59.1768 63.101 53.3077L64.8678 49.0673C67.3133 43.1982 73.0479 39.375 79.406 39.375H109.594C115.952 39.375 121.687 43.1982 124.132 49.0673L125.899 53.3077C128.344 59.1768 134.079 63 140.437 63H149.625C158.324 63 165.375 70.0515 165.375 78.75V133.875C165.375 142.574 158.324 149.625 149.625 149.625H39.375C30.6765 149.625 23.625 142.574 23.625 133.875V78.75Z" stroke-width="10" stroke-linecap="round"/>
<path d="M118.125 102.375C118.125 115.423 107.548 126 94.5 126C81.4519 126 70.875 115.423 70.875 102.375C70.875 89.3269 81.4519 78.75 94.5 78.75C107.548 78.75 118.125 89.3269 118.125 102.375Z" stroke-width="10" stroke-linecap="round"/>
</svg>
