<svg viewBox="0 0 60 70" fill="none" xmlns="http://www.w3.org/2000/svg">
    <path d="M15.4665 48.268C15.816 47.153 15.4099 45.9449 14.5825 45.2536C14.1993 44.9334 13.821 44.6076 13.4542 44.2631C11.3676 42.3215 9.6344 39.9992 8.5725 37.0473C6.84807 32.2625 7.23652 27.6436 9.49715 23.2517C11.8421 18.6965 15.3225 15.8465 19.3991 14.0325C26.1565 11.0233 32.9925 10.8744 39.8255 13.6455C43.8227 15.266 47.3068 17.8668 49.889 22.016C53.591 27.9708 53.3325 35.584 49.265 41.228C45.969 45.8002 41.7062 48.2843 36.9267 49.652C34.332 50.3954 27.6182 49.1243 25.891 50.83C22.2523 54.5347 18.0776 56.878 13.4402 58.0604C13.0184 58.1669 12.5859 58.2348 12.1587 58.3092C11.6173 58.4052 11.1744 58.2243 10.8966 57.6118C10.6206 56.9993 10.7208 56.4422 11.0654 55.9359C11.4661 55.3491 11.874 54.7663 12.3117 54.2262C13.698 52.5222 14.7699 50.4908 15.4665 48.268Z" stroke-width="5" stroke-linecap="round"/>
</svg>
