<svg viewBox="0 0 65 65" fill="none" xmlns="http://www.w3.org/2000/svg">
    <path d="M53.5351 18.0597C53.0037 17.199 52.1311 16.5687 51.1087 16.3116C50.0838 16.0545 48.9946 16.1897 48.0775 16.6867C46.5535 17.5112 44.7162 17.5103 43.1933 16.6843L41.6149 15.8284C40.1862 15.0536 39.2966 13.5588 39.2966 11.9336C39.2966 9.86172 37.5131 8.125 35.3077 8.125H29.692C27.4866 8.125 25.7031 9.86172 25.7031 11.9336C25.7031 13.5589 24.8136 15.0539 23.3851 15.8292L21.8087 16.6849C20.2856 17.5116 18.4479 17.5123 16.9242 16.6867C16.0071 16.1897 14.9155 16.0545 13.891 16.3116C12.8684 16.5687 11.996 17.199 11.4644 18.0597L8.66049 22.6224C8.13096 23.4832 7.98687 24.5077 8.26079 25.4674C8.53469 26.4291 9.20422 27.248 10.1213 27.745C11.6217 28.5594 12.5563 30.1297 12.5568 31.8367L12.5572 33.1633C12.5577 34.8703 11.6236 36.4406 10.1233 37.255C9.20625 37.7539 8.53466 38.571 8.26079 39.5306C7.9869 40.4923 8.13093 41.5169 8.66049 42.3776L11.4685 46.9403C11.998 47.801 12.8704 48.4312 13.893 48.6885C14.9176 48.9455 16.0071 48.8104 16.9262 48.3131C18.4501 47.4887 20.2873 47.4898 21.8104 48.3159L23.383 49.1687C24.8126 49.9441 25.7031 51.4399 25.7031 53.0665C25.7031 55.1384 27.4863 56.875 29.692 56.875H35.3061C37.5134 56.875 39.2949 55.1384 39.2949 53.0665C39.296 51.4399 40.1873 49.9444 41.6171 49.169L43.1914 48.3156C44.7146 47.4895 46.5519 47.4887 48.0759 48.3131C48.9948 48.8101 50.0844 48.9455 51.1071 48.6885C52.1316 48.4312 53.004 47.801 53.5335 46.9403L56.3396 42.3776C56.869 41.5169 57.0131 40.4923 56.7393 39.5325C56.4652 38.571 55.7957 37.752 54.8787 37.255C53.3783 36.4406 52.4442 34.8703 52.4442 33.1633V31.8367C52.4442 30.1297 53.3783 28.5594 54.8787 27.745C55.7957 27.2461 56.4652 26.4291 56.7393 25.4693C57.0131 24.5076 56.869 23.4831 56.3396 22.6224L53.5351 18.0597Z" stroke-width="5" stroke-linecap="round"/>
    <path d="M40.625 32.5C40.625 36.9874 36.9874 40.625 32.5 40.625C28.0126 40.625 24.375 36.9874 24.375 32.5C24.375 28.0126 28.0126 24.375 32.5 24.375C36.9874 24.375 40.625 28.0126 40.625 32.5Z" stroke-width="5" stroke-linecap="round"/>
</svg>
