<svg viewBox="0 0 50 50" fill="none" xmlns="http://www.w3.org/2000/svg">
    <path d="M36.4583 13.5417V7.29175M36.4583 13.5417V19.7917M36.4583 13.5417H30.2083M36.4583 13.5417H42.7083M11.4583 42.7084H15.625C17.9262 42.7084 19.7917 40.843 19.7917 38.5418V34.3751C19.7917 32.0738 17.9262 30.2084 15.625 30.2084H11.4583C9.15714 30.2084 7.29166 32.0738 7.29166 34.3751V38.5418C7.29166 40.843 9.15714 42.7084 11.4583 42.7084ZM11.4583 19.7917H15.625C17.9262 19.7917 19.7917 17.9263 19.7917 15.6251V11.4584C19.7917 9.15723 17.9262 7.29175 15.625 7.29175H11.4583C9.15714 7.29175 7.29166 9.15723 7.29166 11.4584V15.6251C7.29166 17.9263 9.15714 19.7917 11.4583 19.7917ZM34.375 42.7084H38.5417C40.8429 42.7084 42.7083 40.843 42.7083 38.5418V34.3751C42.7083 32.0738 40.8429 30.2084 38.5417 30.2084H34.375C32.0737 30.2084 30.2083 32.0738 30.2083 34.3751V38.5418C30.2083 40.843 32.0737 42.7084 34.375 42.7084Z" stroke-width="5" stroke-linecap="round"/>
</svg>
