<svg viewBox="0 0 60 60" fill="none" xmlns="http://www.w3.org/2000/svg">
    <path d="M54 49.958V24.0139C54 22.3299 53.2121 20.7534 51.7464 19.6862C47.8957 16.8816 40.06 11.3073 33.8246 6.35261C31.0418 4.14135 26.8118 4.00166 23.9779 6.16101L6.49436 19.4831C4.91118 20.6894 4 22.4506 4 24.3042V49.958C4 53.465 7.19796 56.3078 11.1429 56.3078H12.9286C16.8735 56.3078 20.0714 53.465 20.0714 49.958V43.6081C20.0714 40.1011 23.2693 37.2583 27.2143 37.2583H30.7857C34.7307 37.2583 37.9286 40.1011 37.9286 43.6081V49.958C37.9286 53.465 41.1264 56.3078 45.0714 56.3078H46.8571C50.8021 56.3078 54 53.465 54 49.958Z" stroke-width="5" stroke-linecap="round"/>
</svg>
